<?xml version="1.0" encoding="UTF-8"?>
<svg id="_레이어_1" data-name="레이어_1" xmlns="http://www.w3.org/2000/svg" version="1.1" viewBox="0 0 156.16 34.25">
  <!-- Generator: Adobe Illustrator 29.0.1, SVG Export Plug-In . SVG Version: 2.1.0 Build 192)  -->
  <defs>
    <style>
      .st0 {
        fill: #fff;
      }
    </style>
  </defs>
  <path class="st0" d="M67.22,6.18h-17.03c-1.3,0-2.58.29-3.83.86-.46.2-.89.44-1.3.72-.34.2-.82.58-1.43,1.13-1.9,1.93-2.85,4.21-2.85,6.84v3.07c0,2.12.62,4.03,1.86,5.72.23.31.56.68.99,1.11.42.39.79.7,1.1.94,1.71,1.18,3.52,1.76,5.44,1.76h17.06c.49,0,.93-.15,1.34-.46.52-.48.78-1.01.78-1.59v-11.3h-14.12c-.17,0-.36.02-.56.06-.55.19-.94.5-1.18.92-.23.28-.35.71-.35,1.3v2.61h9.43v2.74h-12.53c-.23,0-.57-.07-1.02-.21-.22-.08-.46-.2-.72-.35-.21-.14-.46-.33-.75-.59-.69-.75-1.03-1.6-1.03-2.54v-3.32c0-.77.25-1.5.75-2.18.79-1,1.79-1.49,2.99-1.49h19.11v-3.58c0-.36-.07-.69-.22-.99-.43-.79-1.08-1.18-1.92-1.18Z"/>
  <path class="st0" d="M152.71,8.04c-1.67-1.08-3.7-1.68-6.08-1.83v-.03h-11.34c-1.89,0-3.62.65-4.99,1.73t0,0c-1.88,1.48-3.08,3.77-3.08,6.34v.07h0c0,1.44-1.17,2.6-2.6,2.6h-13.86v-5.01h13.02c.58,0,1.07.07,1.49.18h0c.44-2.02,1.46-3.81,2.88-5.2t0,0c-1.42-.48-3.03-.73-4.82-.73h-16.25c-.46,0-.88.15-1.27.46-.52.48-.78,1.01-.78,1.59v20.09h0s3.58,0,3.58,0c.46,0,.87-.12,1.24-.37.6-.47.91-1.04.91-1.72v-3.61h.33l3.87-.02v-.02h9.91c.82,0,1.61-.12,2.35-.35.46-.14.9-.32,1.32-.54,2.61-1.34,4.4-4.05,4.4-7.18h0c0-.75.32-1.42.82-1.89.47-.44,1.09-.71,1.78-.71h10.42c.72,0,1.32.08,1.8.25,1.06.42,1.59,1.18,1.59,2.26,0,.52-.15.99-.45,1.4-.11.12-.21.22-.3.32-.54.52-1.43.78-2.67.78h-11.09c-.9,3.75-3.86,6.69-7.62,7.58v3.82h3.58c.46,0,.87-.12,1.24-.37.6-.47.91-1.04.91-1.72v-3.61h.33l12.24-.06c2.7,0,5.01-.56,6.93-1.67.35-.18.76-.47,1.24-.87.2-.15.45-.39.75-.72,1.14-1.35,1.72-2.96,1.72-4.85,0-2.25-.79-4.12-2.37-5.61-.39-.35-.75-.62-1.08-.81Z"/>
  <path class="st0" d="M100.76,6.74c-.4-.37-.91-.56-1.53-.56h-6.74v5.77h8.98v-3.75c0-.25-.1-.57-.29-.94-.06-.14-.21-.31-.43-.52Z"/>
  <path class="st0" d="M73.48,6.45c-.12.05-.3.19-.56.41-.23.25-.4.59-.49,1.02-.04.01-.06.39-.06,1.15v2.93h11.46v14.32c0,.42.15.84.46,1.24.05.06.1.11.13.14.01.02.02.04.03.05.46.41.94.62,1.46.62h3.69V6.18h-14.99c-.49,0-.86.09-1.13.27Z"/>
  <path class="st0" d="M16.91.43C7.57.43,0,8,0,17.34s7.57,16.91,16.91,16.91,16.91-7.57,16.91-16.91S26.25.43,16.91.43ZM12.72,25.2s-.04,0-.07,0c-2.08-.02-4.01-.84-5.42-2.3-2.9-3-2.86-7.84.09-10.79l.7-.7c.92-.92,2.12-1.37,3.32-1.37,1.06,0,2.11.35,2.98,1.06l-3.94,3.94c-1.34,1.34-1.42,3.47-.18,4.84.64.71,1.53,1.12,2.49,1.14.96.02,1.86-.34,2.54-1.01l4.36-4.36c.82-.82,2.17-.82,2.99,0,.4.4.62.93.62,1.5s-.22,1.1-.62,1.5l-4.26,4.26c-1.47,1.47-3.51,2.31-5.6,2.31ZM26.49,22.58l-.7.7c-1.72,1.72-4.45,1.82-6.3.31l3.94-3.94c1.34-1.34,1.42-3.47.18-4.84-.64-.71-1.53-1.12-2.49-1.14-.96-.03-1.86.34-2.54,1.01l-4.36,4.36c-.82.82-2.17.82-2.99,0-.82-.82-.82-2.17,0-2.99l4.26-4.26c1.48-1.48,3.54-2.33,5.66-2.31,2.08.02,4.01.83,5.42,2.3,2.9,3,2.86,7.84-.09,10.79Z"/>
</svg>